<?xml version="1.0" encoding="UTF-8"?>
<svg id="Layer_2" data-name="Layer 2" xmlns="http://www.w3.org/2000/svg" viewBox="0 0 510.6 329.57">
  <defs>
    <style>
      .cls-1 {
        fill: #00327a;
      }

      .cls-1, .cls-2, .cls-3, .cls-4, .cls-5, .cls-6 {
        stroke-width: 0px;
      }

      .cls-2 {
        fill: #000;
      }

      .cls-3 {
        fill: #0054e4;
      }

      .cls-4 {
        fill: #fbfaff;
      }

      .cls-5 {
        fill: #f7fcf6;
      }

      .cls-6 {
        fill: #fff;
      }

      .cls-7 {
        fill: #f44e24;
        stroke: #fff;
        stroke-miterlimit: 10;
        stroke-width: 2px;
      }
    </style>
  </defs>
  <g id="Layer_3" data-name="Layer 3">
    <g>
      <g>
        <rect class="cls-1" width="510.6" height="329.57" rx="9.9" ry="9.9"/>
        <rect class="cls-3" x="8.78" y="6.86" width="493.86" height="314.7" rx="9.9" ry="9.9"/>
        <g>
          <path class="cls-6" d="M40.28,36.96v-10.54h2.23v-2.11h11.15v18.97h-2.23v2.11h-11.16v-2.11h8.92v-4.21h-6.69v-2.11h-2.23ZM49.2,26.43h-4.46v10.54h4.46v-10.54Z"/>
          <path class="cls-6" d="M57.68,26.43v-2.11h8.92v2.11h2.23v12.64h-11.15v-2.11h-2.23v-4.21h2.23v-2.11h6.69v-4.21h-6.69ZM64.37,32.75h-4.46v4.21h4.46v-4.21Z"/>
          <path class="cls-6" d="M70.62,39.07v-14.75h13.39v2.11h2.23v12.64h-4.46v-12.64h-2.23v10.54h-2.23v-10.54h-2.23v12.64h-4.46Z"/>
          <path class="cls-6" d="M90.34,26.43v-2.11h8.92v2.11h2.23v6.32h-8.92v4.21h6.69v2.11h-8.92v-2.11h-2.23v-10.54h2.23ZM97.03,26.43h-4.46v4.21h4.46v-4.21Z"/>
          <path class="cls-6" d="M124.34,24.32v4.21h2.23v2.11h-2.23v8.43h-4.46v-14.75h4.46ZM133.26,28.53h-6.69v-2.11h2.23v-2.11h4.46v4.21Z"/>
          <path class="cls-6" d="M148.43,24.32v14.75h-11.15v-2.11h-2.23v-12.64h4.46v12.64h4.46v-12.64h4.46Z"/>
          <path class="cls-6" d="M163.6,36.96v2.11h-13.39v-2.11h4.46v-14.75h-4.46v-2.11h8.92v16.86h4.46Z"/>
          <path class="cls-6" d="M167.62,26.43v-2.11h8.92v2.11h2.23v6.32h-8.92v4.21h6.69v2.11h-8.92v-2.11h-2.23v-10.54h2.23ZM174.31,26.43h-4.46v4.21h4.46v-4.21Z"/>
          <path class="cls-6" d="M180.56,30.64v-4.21h2.23v-2.11h11.15v2.11h-8.92v4.21h6.69v2.11h2.23v4.21h-2.23v2.11h-11.16v-2.11h8.92v-4.21h-6.69v-2.11h-2.23Z"/>
        </g>
        <g>
          <g>
            <rect class="cls-4" x="19.83" y="56.39" width="471.77" height="254.64" rx="4.31" ry="4.31"/>
            <rect class="cls-7" x="457.28" y="15.49" width="32.23" height="32.23" rx="2.17" ry="2.17"/>
          </g>
          <path class="cls-5" d="M476.01,34.26h-2.61v-1.77h-2.61v-3.53h-2.61v-1.77h-2.62v-3.53h5.23v3.53h2.61v1.77h2.61v3.53h2.61v1.77h2.62v5.3h-5.23v-5.3ZM470.78,32.49v7.07h-5.23v-5.3h2.62v-1.77h2.61ZM476.01,28.95v-5.3h5.23v3.53h-2.62v1.77h-2.61Z"/>
        </g>
      </g>
      <g>
        <g>
          <path class="cls-2" d="M59.57,122.23h5.96v-5.62h3.97v5.62h9.93v-20.62h3.97v11.25h5.96v1.88h-5.96v11.25h-3.97v-1.87h-19.85v-1.88ZM75.45,116.61h-3.97v-1.88h-1.99v-1.88h-3.97v1.88h-1.99v1.88h-3.97v-1.88h1.98v-1.88h1.99v-1.88h1.99v-5.62h-5.96v-1.88h15.88v1.88h-5.96v5.62h1.99v1.88h1.99v1.88h1.98v1.88Z"/>
          <path class="cls-2" d="M116.74,118.48h-11.91v7.5h-3.97v-7.5h-11.91v-1.88h27.79v1.88ZM110.79,114.73h-15.88v-1.88h-1.99v-1.88h-1.99v-3.75h1.99v-1.88h1.99v-1.88h15.88v1.88h1.99v1.88h1.99v3.75h-1.99v1.88h-1.99v1.88ZM96.89,107.23h-1.98v3.75h1.98v1.88h11.91v-1.88h1.98v-3.75h-1.98v-1.88h-11.91v1.88Z"/>
          <path class="cls-2" d="M133.81,112.86h-1.98v-11.25h3.97v5.62h7.94v-5.62h3.97v11.25h-1.98v1.88h-11.91v-1.88ZM133.81,118.48h3.97v-1.88h13.9v1.88h3.97v5.62h-3.97v1.88h-13.9v-1.88h-3.97v-5.62ZM143.74,109.11h-7.94v3.75h7.94v-3.75ZM139.77,120.36h-1.98v1.88h1.98v1.87h9.93v-1.87h1.99v-1.88h-1.99v-1.88h-9.93v1.88ZM155.65,107.23h5.96v1.88h-5.96v5.62h-3.97v-13.12h3.97v5.62Z"/>
          <path class="cls-2" d="M173.12,114.73h-7.94v-1.88h-3.97v-5.62h3.97v-1.88h-3.97v-1.88h5.96v-1.88h3.97v1.88h5.96v1.88h-3.97v1.88h3.97v5.62h-3.97v1.88ZM163.19,118.48h3.97v-1.88h13.9v1.88h3.97v5.62h-3.97v1.88h-13.9v-1.88h-3.97v-5.62ZM167.16,109.11h-1.99v1.88h1.99v1.88h3.97v-1.88h1.99v-1.88h-1.99v-1.88h-3.97v1.88ZM169.15,120.36h-1.98v1.88h1.98v1.87h9.93v-1.87h1.99v-1.88h-1.99v-1.88h-9.93v1.88ZM185.03,114.73h-3.97v-13.12h3.97v3.75h5.96v1.88h-5.96v1.88h5.96v1.88h-5.96v3.75Z"/>
          <path class="cls-2" d="M196.54,120.36h1.98v-7.5h-7.94v-1.87h7.94v-5.63h-7.94v-1.87h11.91v16.88h-1.99v1.88h-1.99v1.87h-5.96v-1.87h3.97v-1.88ZM216.39,125.98h-3.97v-24.37h3.97v24.37Z"/>
          <path class="cls-2" d="M225.92,122.23v-5.62h-1.99v-1.88h-1.99v-1.88h-1.98v-5.62h1.98v-1.88h1.99v-1.88h7.94v1.88h1.99v1.88h1.98v5.62h-1.98v1.88h-1.99v1.88h-1.99v5.62h9.93v-20.62h3.97v11.25h5.96v1.88h-5.96v11.25h-3.97v-1.87h-19.85v-1.88h5.96ZM225.92,105.36v1.88h-1.99v5.62h1.99v1.88h3.97v-1.88h1.99v-5.62h-1.99v-1.88h-3.97Z"/>
          <path class="cls-2" d="M290.63,124.11h-27.79v-1.87h27.79v1.87ZM280.71,112.86h-1.99v-1.88h-3.97v1.88h-1.99v1.88h-7.94v-1.87h5.96v-1.88h1.99v-1.88h1.99v-5.62h3.97v5.62h1.99v1.88h1.99v1.88h5.96v1.87h-7.94v-1.88Z"/>
          <path class="cls-2" d="M294.21,105.36h-1.98v-1.87h13.9v1.87h-1.99v16.88h1.99v1.88h-13.9v-1.88h1.98v-16.88ZM300.16,105.36h-1.98v16.88h1.98v-16.88ZM314.06,125.98h-3.97v-11.25h-3.97v-1.87h3.97v-11.25h3.97v24.37ZM320.01,125.98h-3.97v-24.37h3.97v24.37Z"/>
          <path class="cls-2" d="M333.51,124.11h-7.94v-1.88h-1.99v-1.88h-1.98v-13.12h1.98v-1.88h1.99v-1.88h7.94v1.88h1.99v1.88h1.98v13.12h-1.98v1.88h-1.99v1.88ZM327.56,107.23h-1.99v13.12h1.99v1.88h3.97v-1.88h1.99v-13.12h-1.99v-1.88h-3.97v1.88ZM347.41,125.98h-3.97v-24.37h3.97v24.37Z"/>
          <path class="cls-2" d="M378.77,124.11h-27.79v-1.87h27.79v1.87ZM368.84,112.86h-1.99v-1.88h-3.97v1.88h-1.99v1.88h-7.94v-1.87h5.96v-1.88h1.99v-1.88h1.99v-5.62h3.97v5.62h1.99v1.88h1.99v1.88h5.96v1.87h-7.94v-1.88Z"/>
          <path class="cls-2" d="M382.34,122.24h-1.98v-18.75h3.97v9.38h5.96v-9.38h3.97v18.75h-1.99v1.87h-9.93v-1.87ZM390.28,114.73h-5.96v7.5h5.96v-7.5ZM404.18,112.86h5.96v1.87h-5.96v11.25h-3.97v-24.37h3.97v11.25Z"/>
          <path class="cls-2" d="M437.53,114.73h-27.79v-1.88h27.79v1.88ZM411.72,105.36h19.85v-1.88h-19.85v-1.88h23.82v5.62h-19.85v1.88h19.85v1.88h-21.84v-1.88h-1.99v-3.75ZM411.72,120.36h19.85v-1.88h-19.85v-1.88h23.82v5.62h-19.85v1.88h19.85v1.88h-21.84v-1.88h-1.99v-3.75Z"/>
          <path class="cls-2" d="M71.48,160.9h-7.94v-1.88h-1.99v-1.88h-1.98v-13.12h1.98v-1.88h1.99v-1.88h7.94v1.88h1.99v1.88h1.98v13.12h-1.98v1.88h-1.99v1.88ZM65.53,144.03h-1.99v13.12h1.99v1.88h3.97v-1.88h1.99v-13.12h-1.99v-1.88h-3.97v1.88ZM85.38,162.78h-3.97v-24.37h3.97v24.37Z"/>
          <path class="cls-2" d="M94.91,140.28v-1.88h15.88v1.88h3.97v5.62h-3.97v3.75h5.96v1.88h-27.79v-1.88h5.96v-3.75h-3.97v-5.62h3.97ZM90.94,155.28h3.97v-1.88h15.88v1.88h3.97v5.62h-3.97v1.88h-15.88v-1.88h-3.97v-5.62ZM96.89,140.28v1.88h-1.98v1.88h1.98v1.88h11.91v-1.88h1.98v-1.88h-1.98v-1.88h-11.91ZM96.89,160.9h11.91v-1.87h1.98v-1.88h-1.98v-1.88h-11.91v1.88h-1.98v1.88h1.98v1.87ZM106.82,149.65v-1.88h-7.94v1.88h7.94Z"/>
          <path class="cls-2" d="M128.26,140.28h5.96v1.88h-15.88v-1.88h5.96v-1.88h3.97v1.88ZM130.24,160.9h-7.94v-1.88h-1.99v-1.88h-1.98v-9.38h1.98v-1.88h1.99v-1.88h7.94v1.88h1.99v1.88h1.98v9.38h-1.98v1.88h-1.99v1.88ZM124.29,147.78h-1.99v9.38h1.99v1.88h3.97v-1.88h1.99v-9.38h-1.99v-1.88h-3.97v1.88ZM142.15,149.65h5.96v1.88h-5.96v11.25h-3.97v-24.37h3.97v11.25Z"/>
          <path class="cls-2" d="M159.62,159.03v1.87h-7.94v-1.87h-1.99v-1.88h-1.98v-13.12h1.98v-1.88h1.99v-1.88h7.94v1.88h1.99v1.88h1.98v1.88h5.96v-7.5h3.97v24.37h-3.97v-7.5h-5.96v1.88h-1.98v1.88h-1.99ZM153.67,159.03h3.97v-1.88h1.99v-13.12h-1.99v-1.88h-3.97v1.88h-1.99v13.12h1.99v1.88ZM169.55,147.78h-5.96v5.63h5.96v-5.63Z"/>
          <path class="cls-2" d="M204.48,159.03h-1.99v1.88h-7.94v-1.88h-1.99v-1.88h-1.98v-13.12h1.98v-1.88h1.99v-1.88h7.94v1.88h1.99v1.88h1.98v5.62h1.99v-11.25h3.97v24.37h-3.97v-11.25h-1.99v5.62h-1.98v1.88ZM196.54,159.03h3.97v-1.88h1.99v-13.12h-1.99v-1.88h-3.97v1.88h-1.99v13.12h1.99v1.88ZM218.38,138.4v24.37h-3.97v-24.37h3.97Z"/>
          <path class="cls-2" d="M231.88,160.9h-9.93v-1.87h-1.98v-11.25h9.92v-5.63h-9.92v-1.87h13.9v9.37h-9.93v9.38h5.96v-1.88h3.97v1.87h-1.99v1.88ZM245.77,162.78h-3.97v-11.25h-5.96v-1.87h5.96v-11.25h3.97v24.37Z"/>
          <path class="cls-2" d="M268.8,151.53v-9.38h-3.97v-1.88h23.82v1.88h-3.97v9.38h3.97v1.88h-3.97v5.62h5.96v1.88h-27.79v-1.88h5.96v-5.62h-3.97v-1.88h3.97ZM272.77,151.53h7.94v-9.38h-7.94v9.38ZM280.71,153.4h-7.94v5.62h7.94v-5.62Z"/>
          <path class="cls-2" d="M304.13,159.03h-1.99v-1.88h-3.97v1.88h-1.99v1.88h-3.97v-1.87h1.98v-1.88h1.99v-1.88h1.99v-15h3.97v15h1.99v1.88h1.99v1.88h1.98v1.87h-3.97v-1.88ZM318.03,162.78h-3.97v-24.37h3.97v24.37Z"/>
          <path class="cls-2" d="M349.39,151.53h-27.79v-1.88h27.79v1.88ZM323.59,142.15h19.85v-1.88h-19.85v-1.88h23.82v5.62h-19.85v1.88h19.85v1.88h-21.84v-1.88h-1.99v-3.75ZM323.59,157.15h19.85v-1.88h-19.85v-1.88h23.82v5.62h-19.85v1.88h19.85v1.88h-21.84v-1.88h-1.99v-3.75Z"/>
          <path class="cls-2" d="M366.46,147.78h-1.98v-5.62h1.98v-1.88h1.99v-1.88h7.94v1.88h1.99v1.88h1.98v1.88h5.96v-5.62h3.97v13.12h-3.97v-5.62h-5.96v1.88h-1.98v1.88h-1.99v1.88h-7.94v-1.88h-1.99v-1.88ZM366.46,153.4h3.97v3.75h3.97v-3.75h3.97v7.5h-1.99v1.88h-7.94v-1.88h-1.99v-7.5ZM370.43,149.65h3.97v-1.88h1.99v-5.62h-1.99v-1.88h-3.97v1.88h-1.99v5.62h1.99v1.88ZM374.4,159.03h-3.97v1.88h3.97v-1.88ZM382.34,160.9v-1.87h1.99v-5.63h3.97v5.63h1.99v1.87h1.98v1.88h-3.97v-1.88h-3.97v1.88h-3.97v-1.88h1.99Z"/>
          <path class="cls-2" d="M405.77,160.9h-7.94v-1.88h-1.99v-1.88h-1.98v-13.12h1.98v-1.88h1.99v-1.88h7.94v1.88h1.99v1.88h1.98v13.12h-1.98v1.88h-1.99v1.88ZM399.81,144.03h-1.99v13.12h1.99v1.88h3.97v-1.88h1.99v-13.12h-1.99v-1.88h-3.97v1.88ZM415.69,162.78h-3.97v-24.37h3.97v11.25h1.99v-11.25h3.97v24.37h-3.97v-11.25h-1.99v11.25Z"/>
          <path class="cls-2" d="M439.12,159.03h11.91v1.88h-27.79v-1.88h11.91v-9.38h3.97v9.38ZM425.22,140.28h23.82v11.25h-1.99v1.88h-3.97v-1.88h1.98v-9.38h-19.85v-1.88Z"/>
          <path class="cls-2" d="M158.43,188.32v-1.88h-1.99v-1.88h-1.98v-5.62h1.98v-1.88h1.99v-1.88h7.94v1.88h1.99v1.88h7.94v-3.75h3.97v13.13h-3.97v-3.75h-7.94v1.88h-1.99v1.88h-7.94ZM160.41,197.7h19.85v1.88h-21.84v-1.88h-1.99v-7.5h3.97v7.5ZM160.41,186.45h3.97v-1.88h1.99v-5.62h-1.99v-1.88h-3.97v1.88h-1.99v5.62h1.99v1.88ZM176.29,180.82h-5.96v1.88h5.96v-1.88Z"/>
          <path class="cls-2" d="M211.63,192.07h-11.91v7.5h-3.97v-7.5h-11.91v-1.88h27.79v1.88ZM205.67,188.32h-15.88v-1.88h-1.99v-1.88h-1.99v-3.75h1.99v-1.88h1.99v-1.88h15.88v1.88h1.99v1.88h1.99v3.75h-1.99v1.88h-1.99v1.88ZM191.78,180.82h-1.98v3.75h1.98v1.88h11.91v-1.88h1.98v-3.75h-1.98v-1.88h-11.91v1.88Z"/>
          <path class="cls-2" d="M241.01,188.32h-27.79v-1.88h27.79v1.88ZM215.2,178.95h19.85v-1.88h-19.85v-1.88h23.82v5.62h-19.85v1.88h19.85v1.88h-21.84v-1.88h-1.99v-3.75ZM215.2,193.95h19.85v-1.88h-19.85v-1.88h23.82v5.62h-19.85v1.88h19.85v1.88h-21.84v-1.88h-1.99v-3.75Z"/>
          <path class="cls-2" d="M275.94,190.2v-1.88h1.98v-9.38h-19.85v-1.88h23.82v11.25h-1.99v1.88h3.97v1.88h-11.91v7.5h-3.97v-7.5h-11.91v-1.88h19.85Z"/>
          <path class="cls-2" d="M295.4,177.07h5.96v1.88h-15.88v-1.88h5.96v-1.88h3.97v1.88ZM297.38,197.7h-7.94v-1.88h-1.99v-1.88h-1.98v-9.38h1.98v-1.88h1.99v-1.88h7.94v1.88h1.99v1.88h1.98v9.38h-1.98v1.88h-1.99v1.88ZM291.43,184.57h-1.99v9.38h1.99v1.88h3.97v-1.88h1.99v-9.38h-1.99v-1.88h-3.97v1.88ZM307.31,199.57h-3.97v-24.37h3.97v11.25h1.99v-11.25h3.97v24.37h-3.97v-11.25h-1.99v11.25Z"/>
          <path class="cls-2" d="M326.76,197.7h-9.93v-1.87h-1.98v-11.25h9.92v-5.63h-9.92v-1.87h13.9v9.37h-9.93v9.38h5.96v-1.88h3.97v1.87h-1.99v1.88ZM338.67,186.45h5.96v1.87h-5.96v11.25h-3.97v-24.37h3.97v11.25Z"/>
          <path class="cls-2" d="M352.17,178.95v1.88h1.99v5.62h-1.99v3.75h-3.97v-3.75h-1.99v-5.62h1.99v-1.88h3.97ZM348.2,195.82v-3.75h3.97v3.75h-3.97Z"/>
        </g>
        <g>
          <g>
            <g>
              <polygon class="cls-2" points="187.97 240.48 187.97 238.45 185.94 238.45 185.94 236.43 183.91 236.43 183.91 234.4 181.89 234.4 181.89 236.43 181.89 238.45 181.89 240.48 179.86 240.48 177.83 240.48 175.81 240.48 173.78 240.48 171.75 240.48 169.73 240.48 169.73 242.51 171.75 242.51 173.78 242.51 175.81 242.51 177.83 242.51 179.86 242.51 181.89 242.51 181.89 244.53 181.89 246.56 181.89 248.59 183.91 248.59 183.91 246.56 185.94 246.56 185.94 244.53 187.97 244.53 187.97 242.51 189.99 242.51 189.99 240.48 187.97 240.48"/>
              <g>
                <polygon class="cls-2" points="201.14 221.23 201.14 223.25 201.14 225.28 201.14 227.31 201.14 229.33 201.14 231.36 201.14 233.39 201.14 235.41 201.14 237.44 201.14 239.47 201.14 241.49 201.14 243.52 201.14 245.55 201.14 247.57 201.14 249.6 201.14 251.63 201.14 253.65 201.14 255.68 201.14 257.71 201.14 259.73 201.14 261.76 203.16 261.76 203.16 259.73 203.16 257.71 203.16 255.68 203.16 253.65 203.16 251.63 203.16 249.6 203.16 247.57 203.16 245.55 203.16 243.52 203.16 241.49 203.16 239.47 203.16 237.44 203.16 235.41 203.16 233.39 203.16 231.36 203.16 229.33 203.16 227.31 203.16 225.28 203.16 223.25 203.16 221.23 201.14 221.23"/>
                <rect class="cls-2" x="199.11" y="261.76" width="2.03" height="2.03"/>
                <rect class="cls-2" x="199.11" y="219.2" width="2.03" height="2.03"/>
                <polygon class="cls-2" points="195.06 263.79 193.03 263.79 191 263.79 188.98 263.79 186.95 263.79 184.92 263.79 182.9 263.79 180.87 263.79 178.84 263.79 176.82 263.79 174.8 263.79 172.77 263.79 170.74 263.79 168.72 263.79 166.69 263.79 164.66 263.79 162.64 263.79 160.61 263.79 160.61 265.81 162.64 265.81 164.66 265.81 166.69 265.81 168.72 265.81 170.74 265.81 172.77 265.81 174.8 265.81 176.82 265.81 178.84 265.81 180.87 265.81 182.9 265.81 184.92 265.81 186.95 265.81 188.98 265.81 191 265.81 193.03 265.81 195.06 265.81 197.08 265.81 199.11 265.81 199.11 263.79 197.08 263.79 195.06 263.79"/>
                <polygon class="cls-2" points="164.66 219.2 166.69 219.2 168.72 219.2 170.74 219.2 172.77 219.2 174.8 219.2 176.82 219.2 178.84 219.2 180.87 219.2 182.9 219.2 184.92 219.2 186.95 219.2 188.98 219.2 191 219.2 193.03 219.2 195.06 219.2 197.08 219.2 199.11 219.2 199.11 217.17 197.08 217.17 195.06 217.17 193.03 217.17 191 217.17 188.98 217.17 186.95 217.17 184.92 217.17 182.9 217.17 180.87 217.17 178.84 217.17 176.82 217.17 174.8 217.17 172.77 217.17 170.74 217.17 168.72 217.17 166.69 217.17 164.66 217.17 162.64 217.17 160.61 217.17 160.61 219.2 162.64 219.2 164.66 219.2"/>
                <rect class="cls-2" x="158.58" y="261.76" width="2.03" height="2.03"/>
                <rect class="cls-2" x="158.58" y="219.2" width="2.03" height="2.03"/>
                <polygon class="cls-2" points="158.58 257.71 158.58 255.68 158.58 253.65 158.58 251.63 158.58 249.6 158.58 247.57 158.58 245.55 158.58 243.52 158.58 241.49 158.58 239.47 158.58 237.44 158.58 235.41 158.58 233.39 158.58 231.36 158.58 229.33 158.58 227.31 158.58 225.28 158.58 223.25 158.58 221.23 156.56 221.23 156.56 223.25 156.56 225.28 156.56 227.31 156.56 229.33 156.56 231.36 156.56 233.39 156.56 235.41 156.56 237.44 156.56 239.47 156.56 241.49 156.56 243.52 156.56 245.55 156.56 247.57 156.56 249.6 156.56 251.63 156.56 253.65 156.56 255.68 156.56 257.71 156.56 259.73 156.56 261.76 158.58 261.76 158.58 259.73 158.58 257.71"/>
              </g>
            </g>
            <g>
              <g>
                <polygon class="cls-2" points="147.43 221.23 147.43 223.25 147.43 225.28 147.43 227.31 147.43 229.33 147.43 231.36 147.43 233.39 147.43 235.41 147.43 237.44 147.43 239.47 147.43 241.49 147.43 243.52 147.43 245.55 147.43 247.57 147.43 249.6 147.43 251.63 147.43 253.65 147.43 255.68 147.43 257.71 147.43 259.73 147.43 261.76 149.46 261.76 149.46 259.73 149.46 257.71 149.46 255.68 149.46 253.65 149.46 251.63 149.46 249.6 149.46 247.57 149.46 245.55 149.46 243.52 149.46 241.49 149.46 239.47 149.46 237.44 149.46 235.41 149.46 233.39 149.46 231.36 149.46 229.33 149.46 227.31 149.46 225.28 149.46 223.25 149.46 221.23 147.43 221.23"/>
                <rect class="cls-2" x="145.41" y="261.76" width="2.03" height="2.03"/>
                <rect class="cls-2" x="145.41" y="219.2" width="2.03" height="2.03"/>
                <polygon class="cls-2" points="141.36 263.79 139.33 263.79 137.3 263.79 135.28 263.79 133.25 263.79 131.22 263.79 129.2 263.79 127.17 263.79 125.14 263.79 123.12 263.79 121.09 263.79 119.07 263.79 117.04 263.79 115.01 263.79 112.99 263.79 110.96 263.79 108.93 263.79 106.91 263.79 106.91 265.81 108.93 265.81 110.96 265.81 112.99 265.81 115.01 265.81 117.04 265.81 119.07 265.81 121.09 265.81 123.12 265.81 125.14 265.81 127.17 265.81 129.2 265.81 131.22 265.81 133.25 265.81 135.28 265.81 137.3 265.81 139.33 265.81 141.36 265.81 143.38 265.81 145.41 265.81 145.41 263.79 143.38 263.79 141.36 263.79"/>
                <polygon class="cls-2" points="110.96 219.2 112.99 219.2 115.01 219.2 117.04 219.2 119.07 219.2 121.09 219.2 123.12 219.2 125.14 219.2 127.17 219.2 129.2 219.2 131.22 219.2 133.25 219.2 135.28 219.2 137.3 219.2 139.33 219.2 141.36 219.2 143.38 219.2 145.41 219.2 145.41 217.17 143.38 217.17 141.36 217.17 139.33 217.17 137.3 217.17 135.28 217.17 133.25 217.17 131.22 217.17 129.2 217.17 127.17 217.17 125.14 217.17 123.12 217.17 121.09 217.17 119.07 217.17 117.04 217.17 115.01 217.17 112.99 217.17 110.96 217.17 108.93 217.17 106.91 217.17 106.91 219.2 108.93 219.2 110.96 219.2"/>
                <rect class="cls-2" x="104.88" y="261.76" width="2.03" height="2.03"/>
                <rect class="cls-2" x="104.88" y="219.2" width="2.03" height="2.03"/>
                <polygon class="cls-2" points="104.88 257.71 104.88 255.68 104.88 253.65 104.88 251.63 104.88 249.6 104.88 247.57 104.88 245.55 104.88 243.52 104.88 241.49 104.88 239.47 104.88 237.44 104.88 235.41 104.88 233.39 104.88 231.36 104.88 229.33 104.88 227.31 104.88 225.28 104.88 223.25 104.88 221.23 102.86 221.23 102.86 223.25 102.86 225.28 102.86 227.31 102.86 229.33 102.86 231.36 102.86 233.39 102.86 235.41 102.86 237.44 102.86 239.47 102.86 241.49 102.86 243.52 102.86 245.55 102.86 247.57 102.86 249.6 102.86 251.63 102.86 253.65 102.86 255.68 102.86 257.71 102.86 259.73 102.86 261.76 104.88 261.76 104.88 259.73 104.88 257.71"/>
              </g>
              <polygon class="cls-2" points="134.26 240.48 132.24 240.48 130.21 240.48 128.18 240.48 126.16 240.48 124.13 240.48 124.13 238.45 124.13 236.43 124.13 234.4 122.11 234.4 122.11 236.43 120.08 236.43 120.08 238.45 118.05 238.45 118.05 240.48 116.03 240.48 116.03 242.51 118.05 242.51 118.05 244.53 120.08 244.53 120.08 246.56 122.11 246.56 122.11 248.59 124.13 248.59 124.13 246.56 124.13 244.53 124.13 242.51 126.16 242.51 128.18 242.51 130.21 242.51 132.24 242.51 134.26 242.51 136.29 242.51 136.29 240.48 134.26 240.48"/>
            </g>
          </g>
          <g>
            <g>
              <path class="cls-2" d="M284.86,246.11v-2.64h-1.4v-1.32h-1.4v-1.32h-1.4v-1.32h-1.4v-2.64h1.4v-1.32h5.59v1.32h1.4v1.32h-2.79v-1.32h-2.79v2.64h1.4v1.32h1.4v1.32h1.4v1.32h1.4v2.64h-1.4v1.32h-5.59v-1.32h-1.4v-1.32h2.79v1.32h2.79Z"/>
              <path class="cls-2" d="M297.16,236.87v3.96h-1.4v1.32h-4.19v5.28h-2.79v-11.88h6.99v1.32h1.4ZM294.36,236.87h-2.79v3.96h2.79v-3.96Z"/>
              <path class="cls-2" d="M301.07,236.87v-1.32h2.79v1.32h1.4v1.32h1.4v9.24h-2.79v-3.96h-2.79v3.96h-2.79v-9.24h1.4v-1.32h1.4ZM303.86,238.19h-2.79v3.96h2.79v-3.96Z"/>
              <path class="cls-2" d="M314.76,235.55v1.32h1.4v2.64h-2.79v-2.64h-2.79v9.24h2.79v-2.64h2.79v2.64h-1.4v1.32h-5.59v-1.32h-1.4v-9.24h1.4v-1.32h5.59Z"/>
              <path class="cls-2" d="M320.07,242.15v3.96h5.59v1.32h-8.38v-11.88h8.38v1.32h-5.59v3.96h4.19v1.32h-4.19Z"/>
              <path class="cls-2" d="M343.27,240.83v1.32h1.4v3.96h-1.4v1.32h-6.99v-11.88h6.99v1.32h1.4v3.96h-1.4ZM341.87,236.87h-2.79v3.96h2.79v-3.96ZM341.87,242.15h-2.79v3.96h2.79v-3.96Z"/>
              <path class="cls-2" d="M348.57,236.87v-1.32h2.79v1.32h1.4v1.32h1.4v9.24h-2.79v-3.96h-2.79v3.96h-2.79v-9.24h1.4v-1.32h1.4ZM351.37,238.19h-2.79v3.96h2.79v-3.96Z"/>
              <path class="cls-2" d="M362.27,235.55v1.32h1.4v3.96h-1.4v2.64h1.4v3.96h-2.79v-3.96h-1.4v-1.32h-1.4v5.28h-2.79v-11.88h6.99ZM360.87,236.87h-2.79v3.96h2.79v-3.96Z"/>
            </g>
            <g>
              <polygon class="cls-2" points="405.72 221.23 405.72 223.25 405.72 225.28 405.72 227.31 405.72 229.33 405.72 231.36 405.72 233.39 405.72 235.41 405.72 237.44 405.72 239.47 405.72 241.49 405.72 243.52 405.72 245.55 405.72 247.57 405.72 249.6 405.72 251.63 405.72 253.65 405.72 255.68 405.72 257.71 405.72 259.73 405.72 261.76 407.75 261.76 407.75 259.73 407.75 257.71 407.75 255.68 407.75 253.65 407.75 251.63 407.75 249.6 407.75 247.57 407.75 245.55 407.75 243.52 407.75 241.49 407.75 239.47 407.75 237.44 407.75 235.41 407.75 233.39 407.75 231.36 407.75 229.33 407.75 227.31 407.75 225.28 407.75 223.25 407.75 221.23 405.72 221.23"/>
              <rect class="cls-2" x="403.69" y="261.76" width="2.03" height="2.03"/>
              <rect class="cls-2" x="403.69" y="219.2" width="2.03" height="2.03"/>
              <polygon class="cls-2" points="386.38 263.79 377.72 263.79 369.07 263.79 360.41 263.79 351.75 263.79 343.1 263.79 334.44 263.79 325.79 263.79 317.13 263.79 308.49 263.79 299.84 263.79 291.18 263.79 282.52 263.79 273.87 263.79 265.21 263.79 256.56 263.79 247.9 263.79 239.24 263.79 239.24 265.81 247.9 265.81 256.56 265.81 265.21 265.81 273.87 265.81 282.52 265.81 291.18 265.81 299.84 265.81 308.49 265.81 317.13 265.81 325.79 265.81 334.44 265.81 343.1 265.81 351.75 265.81 360.41 265.81 369.07 265.81 377.72 265.81 386.38 265.81 395.04 265.81 403.69 265.81 403.69 263.79 395.04 263.79 386.38 263.79"/>
              <polygon class="cls-2" points="256.56 219.2 265.21 219.2 273.87 219.2 282.52 219.2 291.18 219.2 299.84 219.2 308.49 219.2 317.13 219.2 325.79 219.2 334.44 219.2 343.1 219.2 351.75 219.2 360.41 219.2 369.07 219.2 377.72 219.2 386.38 219.2 395.04 219.2 403.69 219.2 403.69 217.17 395.04 217.17 386.38 217.17 377.72 217.17 369.07 217.17 360.41 217.17 351.75 217.17 343.1 217.17 334.44 217.17 325.79 217.17 317.13 217.17 308.49 217.17 299.84 217.17 291.18 217.17 282.52 217.17 273.87 217.17 265.21 217.17 256.56 217.17 247.9 217.17 239.24 217.17 239.24 219.2 247.9 219.2 256.56 219.2"/>
              <rect class="cls-2" x="237.22" y="261.76" width="2.03" height="2.03"/>
              <rect class="cls-2" x="237.22" y="219.2" width="2.03" height="2.03"/>
              <polygon class="cls-2" points="237.22 257.71 237.22 255.68 237.22 253.65 237.22 251.63 237.22 249.6 237.22 247.57 237.22 245.55 237.22 243.52 237.22 241.49 237.22 239.47 237.22 237.44 237.22 235.41 237.22 233.39 237.22 231.36 237.22 229.33 237.22 227.31 237.22 225.28 237.22 223.25 237.22 221.23 235.19 221.23 235.19 223.25 235.19 225.28 235.19 227.31 235.19 229.33 235.19 231.36 235.19 233.39 235.19 235.41 235.19 237.44 235.19 239.47 235.19 241.49 235.19 243.52 235.19 245.55 235.19 247.57 235.19 249.6 235.19 251.63 235.19 253.65 235.19 255.68 235.19 257.71 235.19 259.73 235.19 261.76 237.22 261.76 237.22 259.73 237.22 257.71"/>
            </g>
          </g>
        </g>
      </g>
    </g>
  </g>
</svg>