<?xml version="1.0" encoding="UTF-8"?>
<svg id="Layer_2" data-name="Layer 2" xmlns="http://www.w3.org/2000/svg" viewBox="0 0 510.6 329.57">
  <defs>
    <style>
      .cls-1 {
        fill: #00327a;
      }

      .cls-1, .cls-2, .cls-3, .cls-4, .cls-5 {
        stroke-width: 0px;
      }

      .cls-2 {
        fill: #000;
      }

      .cls-3 {
        fill: #0054e4;
      }

      .cls-4 {
        fill: #fbfaff;
      }

      .cls-5 {
        fill: #f7fcf6;
      }

      .cls-6 {
        fill: #f44e24;
        stroke: #fff;
        stroke-miterlimit: 10;
        stroke-width: 2px;
      }
    </style>
  </defs>
  <g id="Layer_3" data-name="Layer 3">
    <g>
      <rect class="cls-1" width="510.6" height="329.57" rx="9.9" ry="9.9"/>
      <rect class="cls-3" x="8.78" y="6.86" width="493.86" height="314.7" rx="9.9" ry="9.9"/>
      <g>
        <g>
          <rect class="cls-4" x="19.83" y="56.39" width="471.77" height="254.64" rx="4.31" ry="4.31"/>
          <rect class="cls-6" x="457.28" y="15.49" width="32.23" height="32.23" rx="2.17" ry="2.17"/>
        </g>
        <path class="cls-5" d="M476.01,34.26h-2.61v-1.77h-2.61v-3.53h-2.61v-1.77h-2.62v-3.53h5.23v3.53h2.61v1.77h2.61v3.53h2.61v1.77h2.62v5.3h-5.23v-5.3ZM470.78,32.49v7.07h-5.23v-5.3h2.62v-1.77h2.61ZM476.01,28.95v-5.3h5.23v3.53h-2.62v1.77h-2.61Z"/>
      </g>
      <g>
        <path class="cls-2" d="M123.95,171.66v7.48h-7.92v-7.48h-7.92v26.18h7.92v-7.48h-3.96v-3.74h11.88v14.96h-19.8v-3.74h-3.96v-26.18h3.96v-3.74h15.84v3.74h3.96Z"/>
        <path class="cls-2" d="M135.04,171.66v-3.74h7.92v3.74h3.96v3.74h3.96v26.18h-7.92v-11.22h-7.92v11.22h-7.92v-26.18h3.96v-3.74h3.96ZM142.96,175.4h-7.92v11.22h7.92v-11.22Z"/>
        <path class="cls-2" d="M161.97,175.4h3.96v3.74h-3.96v22.44h-7.92v-33.66h7.92v7.48ZM165.93,190.36v-11.22h3.96v11.22h-3.96ZM173.85,167.92h7.92v33.66h-7.92v-22.44h-3.96v-3.74h3.96v-7.48Z"/>
        <path class="cls-2" d="M193.01,186.62v11.22h15.84v3.74h-23.76v-33.66h23.76v3.74h-15.84v11.22h11.88v3.74h-11.88Z"/>
        <path class="cls-2" d="M261.28,167.92v3.74h3.96v7.48h-7.92v-7.48h-7.92v26.18h7.92v-7.48h7.92v7.48h-3.96v3.74h-15.84v-3.74h-3.96v-26.18h3.96v-3.74h15.84Z"/>
        <path class="cls-2" d="M276.33,167.92v29.92h15.84v3.74h-23.76v-33.66h7.92Z"/>
        <path class="cls-2" d="M303.26,186.62v11.22h15.84v3.74h-23.76v-33.66h23.76v3.74h-15.84v11.22h11.88v3.74h-11.88Z"/>
        <path class="cls-2" d="M330.18,171.66v-3.74h7.92v3.74h3.96v3.74h3.96v26.18h-7.92v-11.22h-7.92v11.22h-7.92v-26.18h3.96v-3.74h3.96ZM338.1,175.4h-7.92v11.22h7.92v-11.22Z"/>
        <path class="cls-2" d="M368.99,167.92v3.74h3.96v11.22h-3.96v7.48h3.96v11.22h-7.92v-11.22h-3.96v-3.74h-3.96v14.96h-7.92v-33.66h19.8ZM365.03,171.66h-7.92v11.22h7.92v-11.22Z"/>
        <path class="cls-2" d="M418.88,167.92v3.74h3.96v11.22h-3.96v7.48h-7.92v-7.48h-3.96v-11.22h3.96v-3.74h7.92ZM410.96,201.58v-7.48h7.92v7.48h-7.92Z"/>
      </g>
    </g>
  </g>
</svg>