<?xml version="1.0" encoding="UTF-8"?>
<svg id="Layer_2" data-name="Layer 2" xmlns="http://www.w3.org/2000/svg" viewBox="0 0 49.12 49.35">
  <defs>
    <style>
      .cls-1 {
        fill: #02023e;
      }

      .cls-1, .cls-2, .cls-3, .cls-4, .cls-5, .cls-6, .cls-7, .cls-8 {
        stroke-width: 0px;
      }

      .cls-2 {
        fill: #f7b116;
      }

      .cls-3 {
        fill: #000;
      }

      .cls-4 {
        fill: #6e6e6e;
      }

      .cls-5 {
        fill: #f48619;
      }

      .cls-6 {
        fill: #fefefd;
      }

      .cls-7 {
        fill: #f9cd15;
      }

      .cls-8 {
        fill: #fdfb10;
      }
    </style>
  </defs>
  <g id="Layer_2-2" data-name="Layer 2">
    <g>
      <path class="cls-5" d="M4.34,47.55c-.84-.1-1.63-.42-2.34-.85-1.76-1.06-2.3-2.65-1.86-4.62.47.08.61-.21.76-.59.25-.68.58-1.34.88-2,.14-.32.34-.57.74-.55,1.32.06,2.66-.17,3.97.19-.08.33-.16.67-.24,1h0c-.17.08-.2.24-.21.4h0c-.23.14-.2.38-.22.6-.5.81-.3,1.39.58,1.59.42.1.85.19,1.27.2,4.16.02,8.33.01,12.49,0,.27,0,.66.12.6-.4.41,0,.64.49,1.08.43.91.42,1.76.12,2.6-.21.15.06.29.17.44.17,4.62,0,9.23.02,13.85-.02.74,0,1.55-.12,1.91-.99,0-.16,0-.32-.18-.4h0c.16-.83-.45-1.45-.61-2.19.13-.01.26-.03.4-.04,1.53-.07,3.19-.87,4.43.79.05.07.25.02.38.03.49.53.67,1.22.92,1.86,1.19,3.05-.5,4.53-2.57,5.11-1.13.32-2.28.42-3.45.42-11.22,0-22.44,0-33.66,0-.66,0-1.33.03-1.99.04Z"/>
      <path class="cls-7" d="M39.88,39.33c.16.74.77,1.36.61,2.2-.51-.55-.71-1.27-1.07-1.9-2.92-5.22-5.82-10.44-8.73-15.66-1.39-2.49-2.81-4.97-4.21-7.45.06-.66.17-1.32.16-1.98-.03-1.69-.76-3.01-2.27-3.81-1.4-.74-2.78-.57-3.99.4-1.46,1.18-1.94,2.78-1.61,4.62-1.33,2.9-2.82,5.73-4.29,8.56-2.58,4.96-5.07,9.97-7.6,14.95-.16.32-.24.71-.63.86.08-.33.16-.67.24-1,.17-.28.36-.55.49-.85,1.24-2.86,2.47-5.72,3.7-8.58,2.31-5.36,4.63-10.71,6.93-16.08.35-.81.19-1.07-.71-1.09-.92-.02-1.85.05-2.69-.43,1.44-3.02,2.83-6.07,4.34-9.06C19.72.72,21.83-.37,23.89.11c1.32.3,2.27,1.15,3.08,2.19,1.56,2.94,2.88,6,4.32,9.01-1.15-.25-2.31-.19-3.47-.18-.62,0-.87.27-.58.89.25.54.47,1.1.72,1.64,1.47,3.16,2.95,6.31,4.42,9.47,2.51,5.4,5.01,10.8,7.51,16.2Z"/>
      <path class="cls-3" d="M31.29,11.3c-1.44-3-2.76-6.06-4.32-9.01,1.46.03,2.25,1.06,2.96,2.1,1.13,1.65,1.89,3.52,2.76,5.32,3.03,6.27,6.02,12.55,9.02,18.83,2.27,4.75,4.53,9.49,6.78,14.25,1.86,3.92-.76,5.96-3.99,6.36-1.55.19-3.12.21-4.68.2-9.43-.02-18.87,0-28.3,0-1.6,0-3.2-.07-4.76-.4-.93-.2-1.87-.48-2.42-1.39.66-.01,1.33-.04,1.99-.04,11.22,0,22.44,0,33.66,0,1.17,0,2.32-.1,3.45-.42,2.06-.59,3.76-2.07,2.57-5.11-.25-.63-.43-1.33-.92-1.86-.32-.69-.62-1.39-.95-2.07-2.54-5.31-5.08-10.62-7.63-15.92-.66-1.37-1.42-2.69-2.02-4.09-.98-2.29-2.05-4.53-3.21-6.73Z"/>
      <path class="cls-2" d="M14.21,12.1c.84.48,1.77.42,2.69.43.9.02,1.06.28.71,1.09-2.31,5.36-4.62,10.72-6.93,16.08-1.23,2.86-2.46,5.72-3.7,8.58-.13.3-.33.57-.49.85-1.31-.36-2.64-.13-3.96-.19-.4-.02-.6.23-.74.55-.3.67-.63,1.32-.88,2-.14.39-.28.67-.76.59.13-.9.51-1.72.89-2.53,4.33-9.08,8.67-18.15,13.01-27.22.04-.09.1-.16.16-.24Z"/>
      <path class="cls-2" d="M6.25,40.13c.39-.15.47-.54.63-.86,2.53-4.98,5.03-9.99,7.6-14.95,1.47-2.83,2.96-5.66,4.29-8.56,1.02,5.31,2.3,10.57,2.94,15.95.09.77.45.93,1.11.78.41.1.6-.02.64-.48.17-2.23.64-4.42,1-6.62.33-1.48.97-2.89,1.01-4.43.33-1.48.67-2.96,1-4.44,1.4,2.48,2.82,4.96,4.21,7.45,2.92,5.22,5.82,10.44,8.73,15.66.35.63.56,1.35,1.07,1.9,0,0,0,0,0,0,0,.16.02.31.18.4-.36.86-1.17.98-1.91.99-4.61.04-9.23.02-13.85.02-.15,0-.29-.11-.44-.17.53-.41,1.15-.72,1.44-1.38,1.44-1.78.71-4.4-1.37-5.6-1.71-.98-3.83-.44-5.03,1.21-1.27,1.73-1.05,3.61.59,5.16l-.04-.03c.14.11.28.22.42.33.1.03.21.06.31.08.06.52-.34.4-.6.4-4.16,0-8.33,0-12.49,0-.43,0-.86-.1-1.27-.2-.88-.2-1.08-.78-.58-1.59.26-.14.21-.38.22-.61,0,0,0,.01,0,.01.18-.08.21-.24.21-.41h0Z"/>
      <path class="cls-2" d="M31.29,11.3c1.16,2.2,2.23,4.44,3.21,6.73.6,1.39,1.36,2.72,2.02,4.09,2.55,5.3,5.09,10.61,7.63,15.92.33.68.63,1.38.95,2.07-.13,0-.33.04-.38-.03-1.23-1.66-2.89-.86-4.43-.79-.13,0-.26.02-.4.04-2.5-5.4-5-10.8-7.51-16.2-1.47-3.16-2.95-6.31-4.42-9.47-.25-.54-.47-1.1-.72-1.64-.29-.62-.04-.89.58-.89,1.16-.01,2.32-.07,3.47.18Z"/>
      <path class="cls-6" d="M20.79,42.52c-.1-.03-.21-.06-.31-.08.02-.31.04-.63-.42-.33,0,0,.04.03.04.03.33-.59.77-.14,1.11-.05,1.49.38,2.76.08,3.84-1.02.07.14.13.29.2.43-.85,1.12-2.1,1.34-3.38,1.46-.44.06-.66-.43-1.08-.43Z"/>
      <path class="cls-1" d="M21.87,42.96c1.28-.12,2.53-.34,3.38-1.46.19-.07.39-.14.58-.21.03.03.06.05.08.08-.29.66-.91.97-1.44,1.38-.85.33-1.7.63-2.6.21Z"/>
      <path class="cls-8" d="M6.06,40.52c0,.23.04.47-.22.61.02-.22-.01-.46.22-.61Z"/>
      <path class="cls-8" d="M6.26,40.12c0,.17-.03.33-.21.41,0-.17.04-.32.21-.41Z"/>
      <path class="cls-8" d="M40.67,41.92c-.16-.09-.18-.24-.18-.4.17.08.19.23.18.4Z"/>
      <path class="cls-3" d="M22.83,32.49c-.66.15-1.02-.01-1.11-.78-.64-5.38-1.92-10.64-2.94-15.95-.33-1.84.15-3.44,1.61-4.62,1.2-.98,2.59-1.15,3.99-.4,1.51.8,2.24,2.12,2.27,3.81.01.66-.1,1.32-.16,1.98-.33,1.48-.67,2.96-1,4.44-.34-.02-.59.1-.67.45-.31,1.28-.68,2.54-.76,3.86-.53,2.39-.98,4.79-1.21,7.22Z"/>
      <path class="cls-3" d="M25.05,41.06c-1.08,1.1-2.36,1.4-3.84,1.02-.34-.09-.78-.53-1.11.05-1.64-1.55-1.86-3.43-.59-5.16,1.21-1.65,3.32-2.2,5.03-1.21,2.08,1.2,2.81,3.82,1.37,5.6-.03-.03-.06-.05-.08-.08-.13-.44.59-1.01.08-1.21-.42-.16-.66.56-.86.98Z"/>
      <path class="cls-6" d="M22.83,32.49c.23-2.44.68-4.84,1.21-7.22.14.04.28.08.42.12-.36,2.2-.83,4.39-1,6.62-.03.45-.23.58-.64.48Z"/>
      <path class="cls-4" d="M24.47,25.39c-.14-.04-.28-.08-.42-.12.08-1.32.45-2.58.76-3.86.08-.34.34-.47.67-.45-.04,1.54-.69,2.95-1.01,4.43Z"/>
      <path class="cls-1" d="M20.06,42.11c.46-.3.44.02.42.33-.14-.11-.28-.22-.42-.33Z"/>
      <path class="cls-4" d="M25.05,41.06c.21-.42.44-1.15.86-.98.51.2-.21.77-.08,1.21-.19.07-.39.14-.58.2-.07-.14-.13-.29-.2-.43Z"/>
    </g>
  </g>
</svg>