<?xml version="1.0" encoding="UTF-8"?>
<svg id="Layer_2" data-name="Layer 2" xmlns="http://www.w3.org/2000/svg" viewBox="0 0 510.6 329.57">
  <defs>
    <style>
      .cls-1 {
        fill: #332b04;
      }

      .cls-1, .cls-2, .cls-3, .cls-4, .cls-5, .cls-6, .cls-7, .cls-8, .cls-9 {
        stroke-width: 0px;
      }

      .cls-2 {
        fill: #00327a;
      }

      .cls-3 {
        fill: #f6d607;
      }

      .cls-4, .cls-10 {
        fill: #000;
      }

      .cls-5 {
        fill: #0054e4;
      }

      .cls-6 {
        fill: #fbfaff;
      }

      .cls-7 {
        fill: #f7fcf6;
      }

      .cls-8 {
        fill: #fff;
      }

      .cls-10 {
        stroke: #000;
        stroke-width: .25px;
      }

      .cls-10, .cls-11 {
        stroke-miterlimit: 10;
      }

      .cls-11 {
        fill: #f44e24;
        stroke: #fff;
        stroke-width: 2px;
      }

      .cls-9 {
        fill: #0062f7;
      }
    </style>
  </defs>
  <g id="Layer_2-2" data-name="Layer 2">
    <g>
      <rect class="cls-2" width="510.6" height="329.57" rx="9.9" ry="9.9"/>
      <rect class="cls-5" x="8.78" y="6.86" width="493.86" height="314.7" rx="9.9" ry="9.9"/>
      <g>
        <g>
          <rect class="cls-6" x="19.83" y="56.39" width="471.77" height="254.64" rx="4.31" ry="4.31"/>
          <rect class="cls-11" x="457.28" y="15.49" width="32.23" height="32.23" rx="2.17" ry="2.17"/>
        </g>
        <path class="cls-7" d="M476.01,34.26h-2.61v-1.77h-2.61v-3.53h-2.61v-1.77h-2.62v-3.53h5.23v3.53h2.61v1.77h2.61v3.53h2.61v1.77h2.62v5.3h-5.23v-5.3ZM470.78,32.49v7.07h-5.23v-5.3h2.62v-1.77h2.61ZM476.01,28.95v-5.3h5.23v3.53h-2.62v1.77h-2.61Z"/>
      </g>
      <g>
        <g>
          <rect class="cls-8" x="183.17" y="243.04" width="145.09" height="33.54" rx="4.31" ry="4.31"/>
          <path class="cls-9" d="M323.95,277.58h-136.48c-2.93,0-5.31-2.38-5.31-5.31v-24.92c0-2.93,2.38-5.31,5.31-5.31h136.48c2.93,0,5.31,2.38,5.31,5.31v24.92c0,2.93-2.38,5.31-5.31,5.31ZM187.47,244.04c-1.82,0-3.31,1.48-3.31,3.31v24.92c0,1.82,1.48,3.31,3.31,3.31h136.48c1.82,0,3.31-1.48,3.31-3.31v-24.92c0-1.82-1.48-3.31-3.31-3.31h-136.48Z"/>
        </g>
        <g>
          <path class="cls-4" d="M208.6,253.87v3.39h-2.91v-3.39h-2.91v11.88h2.91v-3.39h-1.46v-1.7h4.37v6.79h-7.28v-1.7h-1.46v-11.88h1.46v-1.7h5.82v1.7h1.46Z"/>
          <path class="cls-4" d="M214.42,253.87v-1.7h2.91v1.7h1.46v1.7h1.46v11.88h-2.91v-5.09h-2.91v5.09h-2.91v-11.88h1.46v-1.7h1.46ZM217.34,255.57h-2.91v5.09h2.91v-5.09Z"/>
          <path class="cls-4" d="M226.07,255.57h1.46v1.7h-1.46v10.18h-2.91v-15.27h2.91v3.39ZM227.53,262.36v-5.09h1.46v5.09h-1.46ZM230.44,252.17h2.91v15.27h-2.91v-10.18h-1.46v-1.7h1.46v-3.39Z"/>
          <path class="cls-4" d="M238.88,260.66v5.09h5.82v1.7h-8.74v-15.27h8.74v1.7h-5.82v5.09h4.37v1.7h-4.37Z"/>
          <path class="cls-4" d="M263.92,265.75v-3.39h-1.46v-1.7h-1.46v-1.7h-1.46v-1.7h-1.46v-3.39h1.46v-1.7h5.82v1.7h1.46v1.7h-2.91v-1.7h-2.91v3.39h1.46v1.7h1.46v1.7h1.46v1.7h1.46v3.39h-1.46v1.7h-5.82v-1.7h-1.46v-1.7h2.91v1.7h2.91Z"/>
          <path class="cls-4" d="M274.41,253.87v13.58h-2.91v-13.58h-2.91v-1.7h8.74v1.7h-2.91Z"/>
          <path class="cls-4" d="M281.98,253.87v-1.7h2.91v1.7h1.46v1.7h1.46v11.88h-2.91v-5.09h-2.91v5.09h-2.91v-11.88h1.46v-1.7h1.46ZM284.89,255.57h-2.91v5.09h2.91v-5.09Z"/>
          <path class="cls-4" d="M298.22,252.17v1.7h1.46v5.09h-1.46v3.39h1.46v5.09h-2.91v-5.09h-1.46v-1.7h-1.46v6.79h-2.91v-15.27h7.28ZM296.77,253.87h-2.91v5.09h2.91v-5.09Z"/>
          <path class="cls-4" d="M308.65,253.87v13.58h-2.91v-13.58h-2.91v-1.7h8.74v1.7h-2.91Z"/>
        </g>
      </g>
      <g>
        <path class="cls-7" d="M42.88,32.72v6.66h9.4v2.22h-14.1v-19.98h14.1v2.22h-9.4v6.66h7.05v2.22h-7.05Z"/>
        <path class="cls-7" d="M58.86,26.06v4.44h2.35v2.22h-2.35v8.88h-4.7v-15.54h4.7ZM68.26,30.5h-7.05v-2.22h2.35v-2.22h4.7v4.44Z"/>
        <path class="cls-7" d="M74.84,26.06v4.44h2.35v2.22h-2.35v8.88h-4.7v-15.54h4.7ZM84.24,30.5h-7.05v-2.22h2.35v-2.22h4.7v4.44Z"/>
        <path class="cls-7" d="M97.87,26.06v2.22h2.35v11.1h-2.35v2.22h-9.4v-2.22h-2.35v-11.1h2.35v-2.22h9.4ZM95.52,28.28h-4.7v11.1h4.7v-11.1Z"/>
        <path class="cls-7" d="M106.8,26.06v4.44h2.35v2.22h-2.35v8.88h-4.7v-15.54h4.7ZM116.2,30.5h-7.05v-2.22h2.35v-2.22h4.7v4.44Z"/>
      </g>
      <g>
        <g>
          <path class="cls-1" d="M90.78,116.45l-34.98,79.31c-1.86,4.21,1.23,8.95,5.83,8.95h71.16c4.64,0,7.73-4.8,5.8-9.02l-36.18-79.31c-2.28-5.01-9.41-4.96-11.64.07Z"/>
          <path class="cls-3" d="M84.54,112.56l-34.98,79.31c-1.86,4.21,1.23,8.95,5.83,8.95h71.16c4.64,0,7.73-4.8,5.8-9.02l-36.18-79.31c-2.28-5.01-9.41-4.96-11.64.07Z"/>
        </g>
        <g>
          <path class="cls-10" d="M171.67,122.79h14.45v-5.92h-14.45v-2.96h20.23v17.76h-2.89v2.96h-14.45v-2.96h11.56v-5.92h-14.45v-2.96ZM209.24,149.42h-2.89v2.96h-28.9v-2.96h-2.89v-11.84h34.68v11.84ZM203.46,140.54h-23.12v8.88h23.12v-8.88ZM209.24,134.62h-5.78v-8.88h-8.67v-2.96h8.67v-8.88h5.78v20.71Z"/>
          <path class="cls-10" d="M223.11,140.54h-8.67v-2.96h40.46v2.96h-8.67v11.83h-5.78v-11.83h-11.56v11.83h-5.78v-11.83ZM223.11,119.83h-5.78v-2.96h34.68v2.96h-5.78v8.88h5.78v2.96h-34.68v-2.96h5.78v-8.88ZM240.45,119.83h-11.56v8.88h11.56v-8.88Z"/>
          <path class="cls-10" d="M271.66,143.51h5.78v2.95h-2.89v2.96h-14.45v-2.96h-2.89v-29.59h20.23v2.95h-14.45v8.88h14.45v2.95h-14.45v14.8h8.67v-2.96ZM294.79,152.38h-5.78v-17.75h-8.67v-2.95h8.67v-17.76h5.78v38.47Z"/>
          <path class="cls-10" d="M320.22,146.46h-2.89v2.96h-11.56v-2.96h-2.89v-2.96h-2.89v-20.71h2.89v-2.96h2.89v-2.96h11.56v2.96h2.89v2.96h2.89v8.88h2.89v-17.76h5.78v38.47h-5.78v-17.75h-2.89v8.88h-2.89v2.96ZM308.66,146.46h5.78v-2.96h2.89v-20.71h-2.89v-2.96h-5.78v2.96h-2.89v20.71h2.89v2.96ZM340.45,113.91v38.47h-5.78v-38.47h5.78Z"/>
          <path class="cls-10" d="M362.41,113.91h17.34v17.76h-2.89v2.96h-11.56v-2.96h8.67v-14.8h-11.56v-2.96ZM365.3,137.58h31.79v2.96h-26.01v8.88h26.01v2.96h-28.9v-2.96h-2.89v-11.84ZM397.09,122.79h8.67v2.96h-8.67v8.88h-5.78v-20.71h5.78v8.88Z"/>
          <path class="cls-10" d="M422.53,134.62h-11.56v-2.96h-5.78v-8.88h5.78v-2.96h-5.78v-2.96h8.67v-2.96h5.78v2.96h8.67v2.96h-5.78v2.96h5.78v8.88h-5.78v2.96ZM413.86,149.42h28.9v2.96h-31.79v-2.96h-2.89v-11.83h5.78v11.83ZM413.86,125.75h-2.89v2.96h2.89v2.96h5.78v-2.96h2.89v-2.96h-2.89v-2.96h-5.78v2.96ZM442.76,134.62h-5.78v-20.71h5.78v20.71Z"/>
          <path class="cls-10" d="M177.45,181.8v-2.96h-2.89v-2.96h-2.89v-8.88h2.89v-2.96h2.89v-2.96h11.56v2.96h2.89v2.96h11.56v-5.92h5.78v20.72h-5.78v-5.92h-11.56v2.96h-2.89v2.96h-11.56ZM180.34,196.6h28.9v2.96h-31.79v-2.96h-2.89v-11.83h5.78v11.83ZM180.34,178.84h5.78v-2.96h2.89v-8.88h-2.89v-2.96h-5.78v2.96h-2.89v8.88h2.89v2.96ZM203.46,169.96h-8.67v2.96h8.67v-2.96Z"/>
          <path class="cls-10" d="M254.9,187.72h-17.34v11.83h-5.78v-11.83h-17.34v-2.96h40.46v2.96ZM246.23,181.8h-23.12v-2.96h-2.89v-2.96h-2.89v-5.92h2.89v-2.96h2.89v-2.96h23.12v2.96h2.89v2.96h2.89v5.92h-2.89v2.96h-2.89v2.96ZM226,169.96h-2.89v5.92h2.89v2.96h17.34v-2.96h2.89v-5.92h-2.89v-2.96h-17.34v2.96Z"/>
          <path class="cls-10" d="M297.68,181.8h-40.46v-2.96h40.46v2.96ZM260.1,167h28.9v-2.96h-28.9v-2.96h34.68v8.88h-28.9v2.96h28.9v2.96h-31.79v-2.96h-2.89v-5.92ZM260.1,190.68h28.9v-2.96h-28.9v-2.96h34.68v8.88h-28.9v2.96h28.9v2.96h-31.79v-2.96h-2.89v-5.92Z"/>
          <path class="cls-10" d="M348.54,184.76v-2.96h2.89v-14.8h-28.9v-2.96h34.68v17.76h-2.89v2.96h5.78v2.96h-17.34v11.83h-5.78v-11.83h-17.34v-2.96h28.9Z"/>
          <path class="cls-10" d="M376.86,164.04h8.67v2.96h-23.12v-2.96h8.67v-2.96h5.78v2.96ZM379.75,196.6h-11.56v-2.96h-2.89v-2.96h-2.89v-14.8h2.89v-2.96h2.89v-2.96h11.56v2.96h2.89v2.96h2.89v14.8h-2.89v2.96h-2.89v2.96ZM371.08,175.88h-2.89v14.8h2.89v2.96h5.78v-2.96h2.89v-14.8h-2.89v-2.96h-5.78v2.96ZM394.2,199.55h-5.78v-38.47h5.78v17.76h2.89v-17.76h5.78v38.47h-5.78v-17.75h-2.89v17.75Z"/>
          <path class="cls-10" d="M422.53,196.6h-14.45v-2.95h-2.89v-17.76h14.45v-8.88h-14.45v-2.95h20.23v14.79h-14.45v14.8h8.67v-2.96h5.78v2.95h-2.89v2.96ZM439.87,178.84h8.67v2.95h-8.67v17.75h-5.78v-38.47h5.78v17.76Z"/>
          <path class="cls-10" d="M459.52,167v2.96h2.89v8.88h-2.89v5.92h-5.78v-5.92h-2.89v-8.88h2.89v-2.96h5.78ZM453.74,193.64v-5.92h5.78v5.92h-5.78Z"/>
        </g>
        <path class="cls-4" d="M96.13,142.65v4.87h5.15v14.61h-5.15v9.74h-10.31v-9.74h-5.15v-14.61h5.15v-4.87h10.31ZM85.82,186.47v-9.74h10.31v9.74h-10.31Z"/>
      </g>
    </g>
  </g>
</svg>