<?xml version="1.0" encoding="UTF-8"?>
<svg id="Layer_2" data-name="Layer 2" xmlns="http://www.w3.org/2000/svg" viewBox="0 0 510.6 329.57">
  <defs>
    <style>
      .cls-1 {
        fill: #00327a;
      }

      .cls-1, .cls-2, .cls-3, .cls-4, .cls-5, .cls-6 {
        stroke-width: 0px;
      }

      .cls-2 {
        fill: #000;
      }

      .cls-3 {
        fill: #0054e4;
      }

      .cls-4 {
        fill: #fbfaff;
      }

      .cls-5 {
        fill: #f7fcf6;
      }

      .cls-6 {
        fill: #fff;
      }

      .cls-7 {
        fill: #f44e24;
        stroke: #fff;
        stroke-miterlimit: 10;
        stroke-width: 2px;
      }
    </style>
  </defs>
  <g id="Layer_2-2" data-name="Layer 2">
    <g>
      <g>
        <rect class="cls-1" width="510.6" height="329.57" rx="9.9" ry="9.9"/>
        <rect class="cls-3" x="8.78" y="6.86" width="493.86" height="314.7" rx="9.9" ry="9.9"/>
        <g>
          <path class="cls-6" d="M48.97,37.13v-4.1h-2.17v-2.05h-2.17v-2.05h-2.17v-2.05h-2.17v-4.1h2.17v-2.05h8.69v2.05h2.17v2.05h-4.34v-2.05h-4.34v4.1h2.17v2.05h2.17v2.05h2.17v2.05h2.17v4.1h-2.17v2.05h-8.69v-2.05h-2.17v-2.05h4.34v2.05h4.34Z"/>
          <path class="cls-6" d="M61.57,20.72v4.1h6.52v2.05h-6.52v10.26h6.52v2.05h-8.69v-2.05h-2.17v-10.26h-2.17v-2.05h2.17v-4.1h4.34Z"/>
          <path class="cls-6" d="M80.68,24.82v2.05h2.17v10.26h-2.17v2.05h-8.69v-2.05h-2.17v-10.26h2.17v-2.05h8.69ZM78.51,26.87h-4.34v10.26h4.34v-10.26Z"/>
          <path class="cls-6" d="M88.93,24.82v4.1h2.17v2.05h-2.17v8.21h-4.34v-14.36h4.34ZM97.62,28.92h-6.52v-2.05h2.17v-2.05h4.34v4.1Z"/>
          <path class="cls-6" d="M103.7,43.28v-2.05h2.17v-2.05h-4.34v-2.05h-2.17v-12.31h4.34v12.31h4.34v-12.31h4.34v12.31h-2.17v4.1h-2.17v2.05h-2.17v2.05h-8.69v-2.05h6.51Z"/>
        </g>
        <g>
          <g>
            <rect class="cls-4" x="19.83" y="56.39" width="471.77" height="254.64" rx="4.31" ry="4.31"/>
            <rect class="cls-7" x="457.28" y="15.49" width="32.23" height="32.23" rx="2.17" ry="2.17"/>
          </g>
          <path class="cls-5" d="M476.01,34.26h-2.61v-1.77h-2.61v-3.53h-2.61v-1.77h-2.62v-3.53h5.23v3.53h2.61v1.77h2.61v3.53h2.61v1.77h2.62v5.3h-5.23v-5.3ZM470.78,32.49v7.07h-5.23v-5.3h2.62v-1.77h2.61ZM476.01,28.95v-5.3h5.23v3.53h-2.62v1.77h-2.61Z"/>
        </g>
      </g>
      <g>
        <path class="cls-2" d="M85.59,118.2h-1.98v-1.88h15.88v1.88h-1.98v9.38h1.98v1.88h-15.88v-1.88h1.98v-9.38ZM85.59,133.2h3.97v-1.88h15.88v1.88h3.97v5.62h-3.97v1.88h-15.88v-1.88h-3.97v-5.62ZM93.53,118.2h-3.97v9.38h3.97v-9.38ZM91.55,135.08h-1.98v1.88h1.98v1.87h11.91v-1.87h1.98v-1.88h-1.98v-1.88h-11.91v1.88ZM99.49,120.08h5.96v-3.75h3.97v13.12h-3.97v-3.75h-5.96v-1.88h5.96v-1.88h-5.96v-1.88Z"/>
        <path class="cls-2" d="M118.94,136.95v-5.62h-1.99v-1.88h-1.99v-1.88h-1.98v-3.75h1.98v-1.88h1.99v-1.88h-3.97v-1.88h5.96v-1.88h3.97v1.88h5.96v1.88h-3.97v1.88h1.99v1.88h1.98v3.75h-1.98v1.88h-1.99v1.88h-1.99v5.62h9.93v-20.62h3.97v11.25h5.96v1.88h-5.96v11.25h-3.97v-1.87h-19.85v-1.88h5.96ZM118.94,121.95v1.88h-1.99v3.75h1.99v1.88h3.97v-1.88h1.99v-3.75h-1.99v-1.88h-3.97Z"/>
        <path class="cls-2" d="M144.35,123.83v-3.75h19.85v-1.88h-19.85v-1.88h23.82v5.62h-19.85v1.88h19.85v1.88h-9.93v1.88h11.91v1.88h-27.79v-1.88h11.91v-1.88h-7.94v-1.88h-1.99ZM144.35,131.33h3.97v3.75h15.88v-3.75h3.97v7.5h-1.99v1.88h-19.85v-1.88h-1.99v-7.5ZM164.2,136.95h-15.88v1.88h15.88v-1.88Z"/>
        <path class="cls-2" d="M177.7,135.08h1.98v-15h-7.94v-1.87h11.91v16.88h-1.99v1.88h-1.99v1.87h-5.96v-1.87h3.97v-1.88ZM193.58,140.7h-3.97v-11.25h-3.97v-1.87h3.97v-11.25h3.97v24.37ZM199.53,140.7h-3.97v-24.37h3.97v24.37Z"/>
        <path class="cls-2" d="M220.58,136.95v-9.37h3.97v1.88h1.99v-9.38h-11.91v-1.87h15.88v11.25h-1.98v1.87h-3.97v5.62h9.93v-20.62h3.97v11.25h5.96v1.87h-5.96v11.25h-3.97v-1.87h-19.85v-1.88h5.96Z"/>
        <path class="cls-2" d="M259.88,138.83h-3.97v-1.88h-1.99v-1.88h-3.97v1.88h-1.99v1.88h-3.97v-1.87h1.98v-1.88h1.99v-1.88h1.99v-13.12h-5.96v-1.87h15.88v1.87h-5.96v13.12h1.99v1.88h1.99v1.88h1.98v1.87ZM265.84,140.7h-3.97v-11.25h-3.97v-1.87h3.97v-11.25h3.97v24.37ZM271.79,140.7h-3.97v-24.37h3.97v24.37Z"/>
        <path class="cls-2" d="M296.8,118.2h5.96v1.88h-15.88v-1.88h5.96v-1.88h3.97v1.88ZM298.79,138.83h-7.94v-1.88h-1.99v-1.88h-1.98v-9.38h1.98v-1.88h1.99v-1.88h7.94v1.88h1.99v1.88h1.98v9.38h-1.98v1.88h-1.99v1.88ZM292.83,125.7h-1.99v9.38h1.99v1.88h3.97v-1.88h1.99v-9.38h-1.99v-1.88h-3.97v1.88ZM310.7,127.58h5.96v1.88h-5.96v11.25h-3.97v-24.37h3.97v11.25Z"/>
        <path class="cls-2" d="M316.26,116.33h15.88v1.88h-11.91v9.38h11.91v1.88h-13.9v-1.88h-1.98v-11.25ZM322.21,138.83h19.85v1.88h-21.84v-1.88h-1.99v-7.5h3.97v7.5ZM342.06,129.45h-3.97v-5.62h-5.96v-1.88h5.96v-5.62h3.97v13.12Z"/>
        <path class="cls-2" d="M363.1,129.45v-1.88h-1.99v-1.88h-1.98v-5.62h1.98v-1.88h1.99v-1.88h7.94v1.88h1.99v1.88h7.94v-3.75h3.97v13.13h-3.97v-3.75h-7.94v1.88h-1.99v1.88h-7.94ZM365.09,138.83h19.85v1.88h-21.84v-1.88h-1.99v-7.5h3.97v7.5ZM365.09,127.58h3.97v-1.88h1.99v-5.62h-1.99v-1.88h-3.97v1.88h-1.99v5.62h1.99v1.88ZM380.97,121.95h-5.96v1.88h5.96v-1.88Z"/>
        <path class="cls-2" d="M416.3,133.2h-11.91v7.5h-3.97v-7.5h-11.91v-1.88h27.79v1.88ZM410.35,129.45h-15.88v-1.88h-1.99v-1.88h-1.99v-3.75h1.99v-1.88h1.99v-1.88h15.88v1.88h1.99v1.88h1.99v3.75h-1.99v1.88h-1.99v1.88ZM396.45,121.95h-1.98v3.75h1.98v1.88h11.91v-1.88h1.98v-3.75h-1.98v-1.88h-11.91v1.88Z"/>
        <path class="cls-2" d="M421.86,136.95v-3.75h5.96v3.75h-5.96Z"/>
        <path class="cls-2" d="M118.15,170h-11.91v7.5h-3.97v-7.5h-11.91v-1.88h27.79v1.88ZM116.16,162.5h-1.99v1.88h-19.85v-1.88h-1.99v-7.5h23.82v7.5ZM112.19,156.87h-15.88v5.62h15.88v-5.62Z"/>
        <path class="cls-2" d="M121.72,166.25v-5.62h19.85v-3.75h-19.85v-1.88h23.82v7.5h-19.85v3.75h19.85v1.88h-3.97v5.62h5.96v1.88h-27.79v-1.88h5.96v-5.62h-1.99v-1.88h-1.99ZM137.6,168.12h-7.94v5.62h7.94v-5.62Z"/>
        <path class="cls-2" d="M174.52,175.62h-7.94v-1.88h-1.99v-1.88h-1.98v-13.12h1.98v-1.88h1.99v-1.88h7.94v1.88h1.99v1.88h1.98v13.12h-1.98v1.88h-1.99v1.88ZM168.57,158.75h-1.99v13.12h1.99v1.88h3.97v-1.88h1.99v-13.12h-1.99v-1.88h-3.97v1.88ZM188.42,177.5h-3.97v-24.37h3.97v24.37Z"/>
        <path class="cls-2" d="M205.89,173.75h-1.99v1.87h-9.93v-1.87h-1.98v-18.75h13.9v18.75ZM201.92,156.87h-5.96v16.88h5.96v-16.88ZM217.8,177.5h-3.97v-24.37h3.97v24.37Z"/>
        <path class="cls-2" d="M237.25,175.62h-3.97v-1.88h-1.99v-1.88h-3.97v1.88h-1.99v1.88h-3.97v-1.87h1.98v-1.88h1.99v-1.88h1.99v-13.12h-5.96v-1.87h15.88v1.87h-5.96v13.12h1.99v1.88h1.99v1.88h1.98v1.87ZM247.18,177.5h-3.97v-24.37h3.97v24.37Z"/>
        <path class="cls-2" d="M278.54,166.25h-27.79v-1.88h27.79v1.88ZM252.73,156.87h19.85v-1.88h-19.85v-1.88h23.82v5.62h-19.85v1.88h19.85v1.88h-21.84v-1.88h-1.99v-3.75ZM252.73,171.87h19.85v-1.88h-19.85v-1.88h23.82v5.62h-19.85v1.88h19.85v1.88h-21.84v-1.88h-1.99v-3.75Z"/>
        <path class="cls-2" d="M305.54,175.62h-9.93v-1.87h-1.98v-18.75h13.9v1.87h-9.93v16.88h5.96v-1.88h3.97v1.87h-1.99v1.88ZM317.45,164.38h5.96v1.87h-5.96v11.25h-3.97v-24.37h3.97v11.25Z"/>
        <path class="cls-2" d="M350.8,166.25h-11.91v3.75h-3.97v-3.75h-11.91v-1.88h27.79v1.88ZM324.99,155h3.97v-1.88h15.88v1.88h3.97v5.62h-3.97v1.88h-15.88v-1.88h-3.97v-5.62ZM328.96,175.62h19.85v1.88h-21.84v-1.88h-1.99v-7.5h3.97v7.5ZM330.95,156.87h-1.98v1.88h1.98v1.88h11.91v-1.88h1.98v-1.88h-1.98v-1.88h-11.91v1.88Z"/>
        <path class="cls-2" d="M367.87,164.37h-1.98v-11.25h3.97v5.62h7.94v-5.62h3.97v11.25h-1.98v1.88h-11.91v-1.88ZM367.87,168.12h21.84v1.88h-17.87v5.62h17.87v1.88h-19.85v-1.88h-1.99v-7.5ZM377.79,160.62h-7.94v3.75h7.94v-3.75ZM389.7,158.75h5.96v1.88h-5.96v5.62h-3.97v-13.12h3.97v5.62Z"/>
        <path class="cls-2" d="M407.17,175.62h-9.93v-1.87h-1.98v-18.75h13.9v1.87h-9.93v16.88h5.96v-1.88h3.97v1.87h-1.99v1.88ZM419.08,164.38h5.96v1.87h-5.96v11.25h-3.97v-24.37h3.97v11.25Z"/>
        <path class="cls-2" d="M94.33,203.04h-7.94v-1.88h-1.99v-1.88h-1.98v-5.62h1.98v-1.88h1.99v-1.88h7.94v1.88h1.99v1.88h1.98v5.62h-1.98v1.88h-1.99v1.88ZM106.24,212.42h-1.99v1.88h-1.98v-7.5h-17.87v-1.88h21.84v7.5ZM88.37,193.67h-1.99v5.62h1.99v1.88h3.97v-1.88h1.99v-5.62h-1.99v-1.88h-3.97v1.88ZM106.24,195.54h5.96v1.88h-5.96v5.62h-3.97v-13.12h3.97v5.62Z"/>
        <path class="cls-2" d="M123.71,201.17h-1.99v-1.88h-3.97v1.88h-1.99v1.88h-3.97v-1.88h1.98v-1.88h1.99v-1.88h1.99v-7.5h3.97v7.5h1.99v1.88h1.99v1.88h1.98v1.88h-3.97v-1.88ZM113.78,206.79h3.97v-1.88h15.88v1.88h3.97v5.62h-3.97v1.88h-15.88v-1.88h-3.97v-5.62ZM119.74,208.67h-1.98v1.88h1.98v1.87h11.91v-1.87h1.98v-1.88h-1.98v-1.88h-11.91v1.88ZM137.6,203.04h-3.97v-5.62h-5.96v-1.88h5.96v-5.62h3.97v13.12Z"/>
        <path class="cls-2" d="M156.66,210.55h-1.98v-18.75h3.97v9.38h5.96v-9.38h3.97v18.75h-1.99v1.87h-9.93v-1.87ZM164.6,203.04h-5.96v7.5h5.96v-7.5ZM178.49,201.17h5.96v1.87h-5.96v11.25h-3.97v-24.37h3.97v11.25Z"/>
        <path class="cls-2" d="M195.96,212.42h-7.94v-1.88h-1.99v-1.88h-1.98v-13.12h1.98v-1.88h1.99v-1.88h7.94v1.88h1.99v1.88h1.98v13.12h-1.98v1.88h-1.99v1.88ZM190.01,195.54h-1.99v13.12h1.99v1.88h3.97v-1.88h1.99v-13.12h-1.99v-1.88h-3.97v1.88ZM209.86,214.29h-3.97v-24.37h3.97v24.37Z"/>
        <path class="cls-2" d="M225.34,212.42h-9.93v-1.87h-1.98v-11.25h9.92v-5.63h-9.92v-1.87h13.9v9.37h-9.93v9.38h5.96v-1.88h3.97v1.87h-1.99v1.88ZM239.24,214.29h-3.97v-11.25h-5.96v-1.87h5.96v-11.25h3.97v24.37Z"/>
        <path class="cls-2" d="M270.6,212.42h-27.79v-1.87h27.79v1.87ZM260.68,201.17h-1.99v-1.88h-3.97v1.88h-1.99v1.88h-7.94v-1.87h5.96v-1.88h1.99v-1.88h1.99v-5.62h3.97v5.62h1.99v1.88h1.99v1.88h5.96v1.87h-7.94v-1.88Z"/>
        <path class="cls-2" d="M286.08,210.54h-1.99v1.88h-7.94v-1.88h-1.99v-1.88h-1.98v-13.12h1.98v-1.88h1.99v-1.88h7.94v1.88h1.99v1.88h1.98v5.62h1.99v-11.25h3.97v24.37h-3.97v-11.25h-1.99v5.62h-1.98v1.88ZM278.14,210.54h3.97v-1.88h1.99v-13.12h-1.99v-1.88h-3.97v1.88h-1.99v13.12h1.99v1.88ZM299.98,189.92v24.37h-3.97v-24.37h3.97Z"/>
        <path class="cls-2" d="M315.07,189.92h11.91v11.25h-1.99v1.88h-7.94v-1.88h5.96v-9.38h-7.94v-1.88ZM338.89,212.42h-1.99v1.88h-17.87v-1.88h-1.99v-7.5h21.84v7.5ZM334.92,206.79h-13.9v5.62h13.9v-5.62ZM338.89,195.54h5.96v1.88h-5.96v5.62h-3.97v-13.12h3.97v5.62Z"/>
        <path class="cls-2" d="M348.41,203.04v-1.88h-1.99v-1.88h-1.98v-5.62h1.98v-1.88h1.99v-1.88h7.94v1.88h1.99v1.88h7.94v-3.75h3.97v13.12h-3.97v-3.75h-7.94v1.88h-1.99v1.88h-7.94ZM346.43,204.92h23.82v7.5h-1.99v1.88h-19.85v-1.88h-1.99v-7.5ZM350.4,201.17h3.97v-1.88h1.99v-5.62h-1.99v-1.88h-3.97v1.88h-1.99v5.62h1.99v1.88ZM350.4,212.42h15.88v-5.62h-15.88v5.62ZM366.28,195.54h-5.96v1.88h5.96v-1.88Z"/>
        <path class="cls-2" d="M375.81,204.92v-1.88h-1.98v-11.25h15.88v1.88h-11.91v9.38h11.91v1.88h-5.96v5.62h11.91v-20.62h3.97v24.37h-3.97v-1.87h-21.83v-1.88h5.96v-5.62h-3.97Z"/>
        <path class="cls-2" d="M415.11,210.55v1.87h-7.94v-1.87h-1.99v-1.88h-1.98v-13.12h1.98v-1.88h1.99v-1.88h7.94v1.88h1.99v1.88h1.98v5.62h5.96v-11.25h3.97v24.37h-3.97v-11.25h-5.96v5.63h-1.98v1.88h-1.99ZM409.16,210.55h3.97v-1.88h1.99v-13.12h-1.99v-1.88h-3.97v1.88h-1.99v13.12h1.99v1.88Z"/>
        <path class="cls-2" d="M63.36,232.34h9.92v-3.75h-9.92v-1.88h13.9v11.25h-1.99v1.88h-9.93v-1.88h7.94v-3.75h-9.92v-1.88ZM89.17,249.22h-1.99v1.88h-19.85v-1.88h-1.99v-7.5h23.82v7.5ZM85.2,243.59h-15.88v5.62h15.88v-5.62ZM89.17,239.84h-3.97v-5.62h-5.96v-1.88h5.96v-5.62h3.97v13.12Z"/>
        <path class="cls-2" d="M98.69,243.59h-5.96v-1.88h27.79v1.88h-5.96v7.5h-3.97v-7.5h-7.94v7.5h-3.97v-7.5ZM98.69,230.47h-3.97v-1.88h23.82v1.88h-3.97v5.62h3.97v1.88h-23.82v-1.88h3.97v-5.62ZM110.61,230.47h-7.94v5.62h7.94v-5.62Z"/>
        <path class="cls-2" d="M132.04,245.47h3.97v1.87h-1.99v1.88h-9.93v-1.88h-1.98v-18.75h13.9v1.87h-9.93v5.63h9.93v1.87h-9.93v9.38h5.96v-1.88ZM147.92,251.09h-3.97v-11.25h-5.96v-1.87h5.96v-11.25h3.97v24.37Z"/>
        <path class="cls-2" d="M180.88,237.97h11.91v1.88h-27.79v-1.88h11.91v-3.75h3.97v3.75ZM182.86,234.22h-1.99v-1.88h-3.97v1.88h-1.99v1.88h-7.94v-1.88h5.96v-1.88h1.99v-1.88h1.99v-3.75h3.97v3.75h1.99v1.88h1.99v1.88h5.96v1.88h-7.94v-1.88ZM190.8,249.21h-1.99v1.88h-1.99v-7.5h-19.85v-1.88h23.82v7.5Z"/>
        <path class="cls-2" d="M208.27,247.34h-1.99v1.88h-7.94v-1.88h-1.99v-1.88h-1.98v-13.12h1.98v-1.88h1.99v-1.88h7.94v1.88h1.99v1.88h1.98v5.62h1.99v-11.25h3.97v24.37h-3.97v-11.25h-1.99v5.62h-1.98v1.88ZM200.33,247.34h3.97v-1.88h1.99v-13.12h-1.99v-1.88h-3.97v1.88h-1.99v13.12h1.99v1.88ZM222.16,226.72v24.37h-3.97v-24.37h3.97Z"/>
        <path class="cls-2" d="M237.25,226.72h11.91v11.25h-1.99v1.88h-7.94v-1.88h5.96v-9.38h-7.94v-1.88ZM239.24,241.72h21.84v1.88h-17.87v5.62h17.87v1.88h-19.85v-1.88h-1.99v-7.5ZM261.07,232.34h5.96v1.88h-5.96v5.62h-3.97v-13.12h3.97v5.62Z"/>
        <path class="cls-2" d="M278.54,247.34v1.87h-7.94v-1.87h-1.99v-1.88h-1.98v-9.38h1.98v-1.88h1.99v-1.88h7.94v1.88h1.99v1.88h1.98v5.62h5.96v-5.63h-5.96v-1.87h5.96v-7.5h3.97v24.37h-3.97v-7.5h-5.96v1.88h-1.98v1.88h-1.99ZM282.51,230.47h-15.88v-1.87h5.96v-1.88h3.97v1.88h5.96v1.87ZM272.59,247.34h3.97v-1.88h1.99v-9.38h-1.99v-1.88h-3.97v1.88h-1.99v9.38h1.99v1.88Z"/>
        <path class="cls-2" d="M297.99,247.34h-1.98v-18.75h3.97v9.38h5.96v-9.38h3.97v18.75h-1.99v1.87h-9.93v-1.87ZM305.93,239.84h-5.96v7.5h5.96v-7.5ZM321.82,251.09h-3.97v-11.25h-5.96v-1.87h5.96v-11.25h3.97v24.37Z"/>
        <path class="cls-2" d="M341.27,230.47h5.96v-3.75h3.97v13.13h-3.97v-3.75h-5.96v-1.88h5.96v-1.88h-5.96v1.88h-11.91v3.75h11.91v1.88h-13.9v-1.88h-1.98v-5.62h11.91v-3.75h-11.91v-1.88h15.88v3.75ZM327.37,249.22h1.99v-1.87h1.99v-5.62h3.97v5.62h1.99v1.87h1.99v1.88h-3.97v-1.88h-3.97v1.88h-3.97v-1.88ZM343.25,249.22v-1.87h1.99v-5.62h3.97v5.62h1.99v1.87h1.98v1.88h-3.97v-1.88h-3.97v1.88h-3.97v-1.88h1.99Z"/>
        <path class="cls-2" d="M366.68,249.22h-9.93v-1.87h-1.98v-18.75h13.9v1.87h-9.93v16.88h5.96v-1.88h3.97v1.87h-1.99v1.88ZM378.59,237.97h5.96v1.87h-5.96v11.25h-3.97v-24.37h3.97v11.25Z"/>
        <path class="cls-2" d="M388.11,247.34v-3.75h5.96v3.75h-5.96Z"/>
        <path class="cls-2" d="M415.11,247.34v-3.75h5.96v3.75h-5.96Z"/>
        <path class="cls-2" d="M442.11,247.34v-3.75h5.96v3.75h-5.96Z"/>
      </g>
    </g>
  </g>
</svg>